<svg xmlns="http://www.w3.org/2000/svg" viewBox="0 0 1909.92 1607.59">
  <defs>
    <style>
      .cls-1 {
        fill: #daebe8;
      }

      .cls-2 {
        opacity: 0.8;
      }

      .cls-3 {
        fill: #acc9c5;
      }

      .cls-4 {
        fill: #9cc6bf;
      }

      .cls-5 {
        opacity: 0.5;
      }

      .cls-6 {
        fill: #68a1bf;
      }

      .cls-7 {
        opacity: 0.6;
      }

      .cls-8 {
        fill: #ccd39c;
      }

      .cls-9 {
        fill: #c2c68e;
      }

      .cls-10 {
        fill: #366f90;
      }

      .cls-11 {
        fill: #331832;
      }

      .cls-12 {
        fill: #ef8062;
      }

      .cls-13 {
        fill: #bd7f58;
      }

      .cls-14 {
        fill: #080435;
      }

      .cls-15 {
        fill: #fff;
      }

      .cls-16 {
        fill: #92a5e6;
      }

      .cls-17 {
        fill: #764678;
      }

      .cls-18 {
        opacity: 0.3;
      }

      .cls-19 {
        fill: #ffb27d;
      }

      .cls-20 {
        fill: #5c305d;
      }

      .cls-21 {
        fill: #ec865c;
      }

      .cls-22 {
        fill: #e9845c;
      }

      .cls-23 {
        fill: #6da49a;
      }

      .cls-24 {
        fill: #020202;
      }

      .cls-25 {
        fill: #effbf9;
      }

      .cls-26 {
        fill: #9a603a;
      }
    </style>
  </defs>
  <g id="Layer_2" data-name="Layer 2">
    <g id="_Layer_" data-name="&lt;Layer&gt;">
      <path class="cls-1"
        d="M1909.92,301.43v1001c0,68.1-20.3,126.82-54.07,173.5-45.85,63.34-116.5,104.55-194.93,117.13a1132,1132,0,0,1-130.54,13c-40.76,1.82-84.22,1.94-132.55.62-102.61-2.82-227.18-12.14-394.4-25.47-27.56-2.2-59.22-3.54-93.76-4.22-69.17-1.37-149.95-.09-232.71,2.24-20.05.56-40.22,1.19-60.37,1.85q-20,.66-40,1.37c-124.32,4.39-244.38,9.7-327.6,10.57-137.5,1.44-249-130.12-249-290.63v-1001C0,140.93,111.71,1.37,249,10.8c40.62,2.8,87.3,8.22,138.4,13.63l5,.53q23.32,2.45,47.76,4.79l5,.47q11,1,22.18,2c90.3,7.75,190.17,11.9,292.2.81,66.22-7.2,149.36-14.09,239.69-19.7q19.7-1.22,39.82-2.35h0l2.25-.13C1070.34,9.2,1100,7.72,1130,6.4h0l1.4-.07c193.42-8.5,397.44-9.76,529.56,4.47a274,274,0,0,1,170.72,85.07,281.86,281.86,0,0,1,52.91,80.43,293.72,293.72,0,0,1,13.66,38.3A320.2,320.2,0,0,1,1909.92,301.43Z" />
      <g class="cls-2">
        <path class="cls-3" d="M495.72,1082S390.91,749,309,783.33s115.62,206.23,143.32,304.25Z" />
      </g>
      <path class="cls-4" d="M437.78,1057.46S296.59,776.89,220.93,826.35s136.8,162.51,175.28,245.77Z" />
      <g class="cls-5">
        <path class="cls-6"
          d="M414.59,1065.9c-25.7-58.07-70.23-110.2-103.07-143.71-35.6-36.32-65.48-59.17-65.78-59.4l1.19-2.2c.3.23,30.32,23.18,66,59.62,33,33.65,77.73,86,103.58,144.47Z" />
      </g>
      <g class="cls-7">
        <path class="cls-3" d="M1361.53,1225.83S1573.86,759,1698.36,821.4s-211.58,281.27-269.09,419.12Z" />
      </g>
      <path class="cls-8" d="M1390,1192.33s281.63-296.74,377.64-211.68-242.82,153.95-321.44,243.12Z" />
      <path class="cls-9"
        d="M1421.27,1210.2c53.18-62.58,132-111.75,188.8-142,61.55-32.77,111.12-51,111.61-51.13l-1.12-3.08c-.49.18-50.28,18.44-112,51.32-57,30.36-136.24,79.78-189.76,142.74Z" />
      <path class="cls-3"
        d="M1699.26,1277c-48.9,11.15-39.93,85.26-95.94,72.12-47.37-11.15-51.4-15.46-67.6-1.67a77.23,77.23,0,0,0-14.33,16.38c-4.81,7.3-14.14,18.08-28.46,20.76-87.48,16.35-208.76-111.93-118.12-184.39,6.55-5.23,16.14-7.32,26.76-9.11,57.63-9.64,75.91,16.65,120.62-51.88s107.54,28.32,146.21,24.45,72.66-15.85,103.28,24.83S1748.16,1265.92,1699.26,1277Z" />
      <g class="cls-5">
        <path class="cls-6"
          d="M1403.79,1294.24l-1.87-2.72c1.19-.82,122.72-82.67,376.84-91.42l.12,3.3C1525.7,1212.12,1405,1293.42,1403.79,1294.24Z" />
        <path class="cls-6"
          d="M1633.89,1223.38c-4-3.3-6.21-5.44-6.3-5.54l2.33-2.33c.45.45,46.43,45.61,113.51,42.85l.14,3.29C1689.51,1263.88,1648.9,1235.66,1633.89,1223.38Z" />
        <path class="cls-6"
          d="M1667.7,1299.29c-15.51-16.92-20.06-33.94-21.16-45.25-1.19-12.3,1.3-20.52,1.4-20.86l3.15,1c-.09.32-9.34,31.94,19,62.91Z" />
      </g>
      <path class="cls-3"
        d="M1733,916.16c10-8.33,15.56-7.65,18.82-3.75s3,9.55-7,17.88c-18.13,15.18-32.81,15.45-32.81,15.45S1714.56,931.56,1733,916.16Z" />
      <g class="cls-7">
        <path class="cls-3"
          d="M1721.48,1119.11c13.79-.26,18,4,18.08,9.45s-3.92,9.87-17.71,10.13c-25.13.48-37.47-9.08-37.47-9.08S1696,1119.59,1721.48,1119.11Z" />
      </g>
      <path class="cls-8"
        d="M502.68,1261.45c-40.37,26.3-96.46,19.52-134.3,1.63-18.62-8.8-29.5-47.3-89.31-46.65-42.9.44-41.68-37.08-54.95-66.59-.23-.54-.48-1.08-.73-1.61-5.19-11-12.58-20.7-25.26-26.74a172.46,172.46,0,0,1-38.23-24.86c-.94-.81-1.87-1.63-2.79-2.48-22.36-20.39-35.54-45.53-22.59-67.11.3-.51.62-1,1-1.52a49.67,49.67,0,0,1,9.28-10.27c40.3-34.31,72.05-14.43,110.4-1.73,21.21,7,56.88-15.51,89.59-23.6l1.4-.34c25.91-6.09,49.79-2.66,62.88,32.33h0c.26.71.53,1.42.79,2.11,29.44,77.17,54,55.25,109.78,77.92,10.37,4.22,19.62,8.52,25.08,15.32C595.53,1180.62,568.29,1235.44,502.68,1261.45Z" />
      <path class="cls-9"
        d="M494,1206l2.51-2.33c-1-1.11-105.71-111.73-361.51-178.33l-.87,3.32C388.92,1095.05,492.92,1204.94,494,1206Z" />
      <path class="cls-9"
        d="M357.3,1069c41.12-22.55,52.8-45.38,53.28-46.34l-3.07-1.53c-.11.23-11.79,22.89-51.86,44.86Z" />
      <path class="cls-9"
        d="M343,1103.64c13.49-14.55,18.28-39,13.88-70.62a228,228,0,0,0-10.74-43.6l-3.2,1.2c.29.77,28.55,77.23-2.46,110.69Z" />
      <path class="cls-9"
        d="M276.62,1081.9c4.83-2.43,7.53-4.11,7.66-4.19l-1.84-2.9c-.57.36-57.46,35.73-124.89,17.69l-.88,3.31C211,1110.35,258.61,1090.94,276.62,1081.9Z" />
      <path class="cls-9"
        d="M225.09,1151.22c19.57-13.64,28.06-29.87,31.73-41.09,4-12.21,3.35-21.11,3.32-21.48l-3.42.27c0,.34,2.23,34.52-33.6,59.49Z" />
      <path class="cls-3"
        d="M197.53,970c-15.73-5-18.82-11.5-16.85-17.67s8.23-9.67,24-4.66c28.65,9.13,38.94,24.71,38.94,24.71S226.6,979.29,197.53,970Z" />
      <path class="cls-10"
        d="M172,785.14a10.35,10.35,0,0,1-10.35-9.91L161,760.69a8.66,8.66,0,0,0-5.31-7.63c-.83-.34-1.66-.7-2.48-1.07a8.59,8.59,0,0,0-9.36,1.49l-11.48,10.44a10.37,10.37,0,0,1-14.65-.7l-11.26-12.36a10.38,10.38,0,0,1,.7-14.67l9.86-9a8.67,8.67,0,0,0,2.1-9.89l.73-.48-.79.34a8.69,8.69,0,0,0-8.32-5.16l-12.49.57a10.36,10.36,0,0,1-10.84-9.89L86.65,686a10.37,10.37,0,0,1,9.9-10.84l12.5-.57a8.67,8.67,0,0,0,7.81-5.89l0-.13a8.65,8.65,0,0,0-3-9.66l-10.63-8a10.38,10.38,0,0,1-2-14.53L111.33,623a10.37,10.37,0,0,1,14.54-2l12.37,9.35a8.61,8.61,0,0,0,9.46.64c.78-.45,1.57-.88,2.37-1.3a8.68,8.68,0,0,0,4.6-8.09L154,607.08a10.38,10.38,0,0,1,9.89-10.84l16.69-.76a10.37,10.37,0,0,1,10.84,9.89l.49,10.81a8.66,8.66,0,0,0,6.57,8,66.45,66.45,0,0,1,9,3,8.74,8.74,0,0,0,9.19-1.57l10.18-9.24a10.39,10.39,0,0,1,14.66.7l11.24,12.37a10.37,10.37,0,0,1-.7,14.66l-7.19,6.54a8.58,8.58,0,0,0-2,10.12c.35.73.68,1.46,1,2.21a8.66,8.66,0,0,0,8.29,5.1l8.82-.4a10.39,10.39,0,0,1,10.83,9.89l.76,16.7a10.37,10.37,0,0,1-9.89,10.84l-8.82.4a8.61,8.61,0,0,0-7.79,5.83c-.26.78-.52,1.54-.8,2.3a8.6,8.6,0,0,0,2.9,9.9l7.76,5.85A10.37,10.37,0,0,1,258,744l-10.07,13.33a10.38,10.38,0,0,1-14.53,2l-11-8.28a8.72,8.72,0,0,0-9.3-.71,69.52,69.52,0,0,1-8.71,3.83,8.66,8.66,0,0,0-5.81,8.57l.49,10.81a10.39,10.39,0,0,1-9.9,10.84l-16.7.76Zm-22.34-35.65a10.33,10.33,0,0,1,4.26.93c.79.36,1.6.71,2.41,1.05a10.38,10.38,0,0,1,6.38,9.14l.66,14.54a8.65,8.65,0,0,0,9,8.26l16.7-.76a8.67,8.67,0,0,0,8.26-9l-.5-10.81a10.39,10.39,0,0,1,7-10.27,66,66,0,0,0,8.48-3.74,10.47,10.47,0,0,1,11.14.87l11,8.28a8.66,8.66,0,0,0,12.11-1.7l10.07-13.33a8.64,8.64,0,0,0-1.69-12.12l-7.76-5.86a10.31,10.31,0,0,1-3.48-11.86c.27-.74.53-1.49.78-2.24a10.35,10.35,0,0,1,9.36-7l8.81-.4a8.66,8.66,0,0,0,8.25-9l-.76-16.69a8.68,8.68,0,0,0-9-8.25l-8.82.4a10.38,10.38,0,0,1-9.94-6.14c-.31-.72-.64-1.44-1-2.15a10.3,10.3,0,0,1,2.38-12.14l7.19-6.53a8.67,8.67,0,0,0,.58-12.23l-11.24-12.37a8.67,8.67,0,0,0-12.22-.59l-10.18,9.25a10.48,10.48,0,0,1-11,1.88,64.44,64.44,0,0,0-8.8-2.94,10.39,10.39,0,0,1-7.87-9.6l-.49-10.81a8.65,8.65,0,0,0-9.05-8.25L164,598a8.66,8.66,0,0,0-8.25,9l.66,14.54a10.4,10.4,0,0,1-5.52,9.69c-.78.41-1.55.83-2.32,1.26a10.3,10.3,0,0,1-11.35-.76l-12.37-9.35a8.68,8.68,0,0,0-12.13,1.69l-10.07,13.35a8.64,8.64,0,0,0,1.69,12.12l10.63,8a10.37,10.37,0,0,1,3.59,11.57l0,.12a10.41,10.41,0,0,1-9.37,7.08l-12.5.57a8.66,8.66,0,0,0-8.26,9l.77,16.7a8.65,8.65,0,0,0,9,8.25l12.49-.57a10.43,10.43,0,0,1,10,6.19l-.73.48.78-.34a10.37,10.37,0,0,1-2.51,11.85l-9.86,9a8.64,8.64,0,0,0-.58,12.23L119,762.07a8.66,8.66,0,0,0,12.22.57l11.48-10.43A10.35,10.35,0,0,1,149.68,749.49Z" />
      <path class="cls-10"
        d="M181.47,729c-9,0-18.83-4.56-27.05-12.65s-13.56-18.72-14-28.16,3.7-18.53,11.63-25.78A43.74,43.74,0,0,1,179.14,651c9.26-.42,18.28,4,25.36,12.4a47.5,47.5,0,0,1,11,27.82,37.27,37.27,0,0,1-8.59,26A33.48,33.48,0,0,1,182.67,729h0Zm-1.1-76.36-1.16,0a42,42,0,0,0-26,11c-7.54,6.9-11.47,15.58-11.07,24.43.41,9,5.45,19.11,13.48,27,8.25,8.12,18.08,12.54,27,12.14h0a31.73,31.73,0,0,0,23-11.23,35.52,35.52,0,0,0,8.19-24.79,46.32,46.32,0,0,0-10.59-26.79C196.75,656.84,188.69,652.68,180.37,652.68Z" />
      <path class="cls-3"
        d="M1533.42,266.2V685.64A62.41,62.41,0,0,1,1471,748.08H1307.52a4.72,4.72,0,0,0-4.72,5.28,40.15,40.15,0,0,1,.38,5.51,40.83,40.83,0,0,1-81.47,4,42,42,0,0,1,.08-8.69,5.48,5.48,0,0,0-.57-3.17,5.33,5.33,0,0,0-4.77-2.91H1051.56a62.16,62.16,0,0,1-21.83-3.93c-.67-.25-1.34-.51-2-.78a62.45,62.45,0,0,1-38.6-57.72V512.08a9.29,9.29,0,0,1,11.79-8.92,40.83,40.83,0,1,0,1.41-79.17,10.73,10.73,0,0,1-13.2-10.43V266.2a62.42,62.42,0,0,1,62.43-62.42H1471A62.42,62.42,0,0,1,1533.42,266.2Z" />
      <path class="cls-8"
        d="M873,504.58a40.79,40.79,0,0,1-9-1,5.68,5.68,0,0,0-6.86,5.59V685.64a62.44,62.44,0,0,1-62.43,62.44H632.19a5.6,5.6,0,0,0-5.57,6.24,42.91,42.91,0,0,1,.25,4.55,40.83,40.83,0,1,1-81.54-3,7.19,7.19,0,0,0-7.13-7.79h-163a62.43,62.43,0,0,1-62.43-62.43V266.2a62.43,62.43,0,0,1,62.43-62.42H794.69a62.42,62.42,0,0,1,62.43,62.42V420.05a4.15,4.15,0,0,0,5.43,4.23,41.38,41.38,0,0,1,14.52-1.16c18.56,1.79,35.4,19.14,36.68,37.74A40.81,40.81,0,0,1,873,504.58Z" />
      <path class="cls-11"
        d="M604.57,811.85c-.78,0-1.56,0-2.35-.05a41.91,41.91,0,0,1-39.16-37.57,42.37,42.37,0,0,1-.08-7.12,6.44,6.44,0,0,0-1.69-4.87,6.21,6.21,0,0,0-4.59-2h-163A63.35,63.35,0,0,1,330.47,697V277.51a63.35,63.35,0,0,1,63.27-63.27H813.19a63.35,63.35,0,0,1,63.28,63.27V431.36a3.56,3.56,0,0,0,1.29,2.91,3.52,3.52,0,0,0,3.07.5,40.93,40.93,0,0,1,14.82-1.18c19,1.82,36.13,19.47,37.44,38.52h0A41.32,41.32,0,0,1,922,503.49a41.8,41.8,0,0,1-39.71,12.23,4.77,4.77,0,0,0-4,.92,4.91,4.91,0,0,0-1.85,3.84V697a63.36,63.36,0,0,1-63.29,63.29H650.69a4.75,4.75,0,0,0-4.73,5.3,42.17,42.17,0,0,1,.27,4.64,41.67,41.67,0,0,1-41.66,41.67ZM393.74,215.94a61.63,61.63,0,0,0-61.57,61.57V697a61.65,61.65,0,0,0,61.57,61.58h163a7.9,7.9,0,0,1,5.83,2.54,8.17,8.17,0,0,1,2.14,6.16,41.19,41.19,0,0,0,.08,6.84,40.18,40.18,0,0,0,37.56,36,40,40,0,0,0,42.21-39.92,38.79,38.79,0,0,0-.25-4.45,6.45,6.45,0,0,1,6.42-7.19H813.18A61.66,61.66,0,0,0,874.77,697V520.48a6.55,6.55,0,0,1,2.49-5.16,6.42,6.42,0,0,1,5.41-1.25,40.16,40.16,0,0,0,38.09-11.74,39.64,39.64,0,0,0,10.64-30.11h0c-1.26-18.27-17.7-35.19-35.91-37a41.16,41.16,0,0,0-14.23,1.14,5.06,5.06,0,0,1-4.53-.8,5.24,5.24,0,0,1-2-4.25V277.51a61.64,61.64,0,0,0-61.58-61.57Z" />
      <path class="cls-12"
        d="M910.45,1168.57a40.82,40.82,0,0,1-9.05-1,5.68,5.68,0,0,0-6.85,5.59v176.47a62.44,62.44,0,0,1-62.43,62.44H412.67a62.42,62.42,0,0,1-62.42-62.42V930.19a62.43,62.43,0,0,1,62.42-62.43H579a8.42,8.42,0,0,1,6.54,3.1,8.17,8.17,0,0,1,1.12,8.8h0a3.78,3.78,0,0,1-.17.35A40.38,40.38,0,0,0,582,893.62a39,39,0,0,0-.41,5.75,40.53,40.53,0,0,0,4.88,19.36c.29.55.6,1.1.92,1.64l.63,1a42,42,0,0,0,4.22,5.5,41.16,41.16,0,0,0,7.19,6.24c.87.59,1.75,1.14,2.65,1.66a41.08,41.08,0,0,0,9.65,4,40.67,40.67,0,0,0,9.44,1.39h0l1.08,0c.58,0,1.17,0,1.76,0,.44,0,.86,0,1.3-.07a39.71,39.71,0,0,0,7.59-1.26c.54-.14,1.07-.3,1.6-.46l.12,0a41.22,41.22,0,0,0,23.77-19.7h0q.25-.45.48-.9c.33-.66.65-1.32.95-2a40.25,40.25,0,0,0,3.33-13.58,40.83,40.83,0,0,0-5-22.52,8.07,8.07,0,0,1,7.17-11.86H832.12A62.38,62.38,0,0,1,886.22,899l0,.06a61.81,61.81,0,0,1,4.51,9.68h0a62.24,62.24,0,0,1,3.78,21.41V1084a4.15,4.15,0,0,0,5.42,4.24,41.15,41.15,0,0,1,14.52-1.16c18.55,1.78,35.4,19.14,36.68,37.73A40.83,40.83,0,0,1,910.45,1168.57Z" />
      <path class="cls-6"
        d="M1512.07,911.72v419.44a62.38,62.38,0,0,1-62.43,62.44H1030.2a62.3,62.3,0,0,1-15.06-1.83h0a62.44,62.44,0,0,1-47.37-60.59V1157.59a9.28,9.28,0,0,1,11.78-8.91,40.83,40.83,0,1,0,1.42-79.17,10.73,10.73,0,0,1-13.2-10.43V911.72a62.44,62.44,0,0,1,62.43-62.43h166.27a8.39,8.39,0,0,1,7.49,12.26,40.85,40.85,0,0,0,38.86,60.09,39.89,39.89,0,0,0,13.1-3.17,41.28,41.28,0,0,0,20.75-19.78,40.73,40.73,0,0,0-1-37.49,8.08,8.08,0,0,1,7.14-11.91h166.81A62.43,62.43,0,0,1,1512.07,911.72Z" />
      <path class="cls-11"
        d="M1470.69,1412.21H1051.25A63.35,63.35,0,0,1,988,1348.93V1175.35a10,10,0,0,1,3.94-8,10.14,10.14,0,0,1,8.92-1.75,40,40,0,1,0,1.39-77.52A11.58,11.58,0,0,1,988,1076.83V929.48a63.35,63.35,0,0,1,63.27-63.28h166.28a9.28,9.28,0,0,1,8,4.59,8.94,8.94,0,0,1,.21,8.92,40,40,0,0,0,7.94,48.2,39.51,39.51,0,0,0,30.11,10.64A40,40,0,0,0,1296,879.38a8.77,8.77,0,0,1,.14-8.75,8.94,8.94,0,0,1,7.74-4.43H1470.7A63.36,63.36,0,0,1,1534,929.48v419.43A63.36,63.36,0,0,1,1470.69,1412.21ZM998.12,1167a8.41,8.41,0,0,0-5.16,1.76,8.27,8.27,0,0,0-3.28,6.64v173.58a61.65,61.65,0,0,0,61.57,61.58h419.44a61.66,61.66,0,0,0,61.59-61.6V929.48a61.64,61.64,0,0,0-61.58-61.58H1303.89a7.21,7.21,0,0,0-6.27,3.59,7,7,0,0,0-.12,7.07,41.68,41.68,0,1,1-73.22.34,7.26,7.26,0,0,0-.18-7.25,7.59,7.59,0,0,0-6.57-3.75H1051.25a61.64,61.64,0,0,0-61.57,61.58v147.35a9.78,9.78,0,0,0,3.73,7.72,10,10,0,0,0,8.43,1.88,41.69,41.69,0,1,1-1.44,80.82A8.93,8.93,0,0,0,998.12,1167Z" />
      <path class="cls-12"
        d="M1507.68,736.17A62.17,62.17,0,0,1,1471,748.08H1307.52a4.72,4.72,0,0,0-4.72,5.28,40.15,40.15,0,0,1,.38,5.51,40.83,40.83,0,0,1-81.47,4,42,42,0,0,1,.08-8.69,5.48,5.48,0,0,0-.57-3.17,486.71,486.71,0,0,1-60.6,26.41q-1.57-12.3-3-24.21c-.2-1.71-.4-3.42-.61-5.11q-.26-2.24-.51-4.44c-.48-4.14-.94-8.23-1.38-12.3h0c-.24-2.14-.46-4.25-.68-6.36q-1.64-15.39-2.88-30.06-1.62-19-2.51-36.89-.46-9.59-.69-18.79h0a487.71,487.71,0,0,1,1.86-60.38s0-.33.1-1q1.4-13.64,3.8-26.12c.24-1.2.48-2.39.73-3.57a200.17,200.17,0,0,1,9.2-31.6v0c.44-1.13.89-2.26,1.36-3.37a134.61,134.61,0,0,1,21.72-36.14,120.91,120.91,0,0,1,26.75-23.38c12.41-8.05,26.92-14.42,43.77-19.09q9.7-2.69,20.48-4.61a252.21,252.21,0,0,1,42-4.08q3.63,0,7.14.07c55.91,1.54,86.21,26,100.93,43.86a95.55,95.55,0,0,1,7.34,10.1c.13.22.26.42.38.63a57.23,57.23,0,0,1,4.14,7.72c3.21,6.08,6.36,12.67,9.46,19.72,8.59,19.49,16.77,42.44,24.48,67.45.12.37.24.73.34,1.1,7.38,24,14.33,49.85,20.79,76.31,0,0,12.06,64.75,12.06,64.75A41.42,41.42,0,0,1,1507.68,736.17Z" />
      <path class="cls-12"
        d="M1474,575.45c21.16,64.66-198.92,22-245.54,23s-78.2-19.56-78.2-19.56,10.45-110.53,89.9-139q11.2-4,23.45-7.16a239.73,239.73,0,0,1,41.56-6.84C1411.11,418.34,1457.93,526.45,1474,575.45Z" />
      <path class="cls-13"
        d="M1262.58,456.32c18.77,4.46,49-13.15,58.54-30.62-.1,0-20.81-1.78-26.73-9.82-7.19-9.77-14.75-29.39-14.75-29.39l1.58-1.49-4.18-8-24.59-46.84,7.11,49.81,2.66,18.52,1.61,11.26,0,.12,1.36,9.47a30.58,30.58,0,0,1-4,19.73C1259.72,441.69,1247.53,452.76,1262.58,456.32Z" />
      <path class="cls-11" d="M1263.83,409.78c18.74-5.43,19.45-17.64,19.45-17.64l-21.06,6.38Z" />
      <path class="cls-11"
        d="M1224.92,315.16s-5.45-40.63,4.6-47.18,7.89,29.82,7.89,29.82-2.27-50.23,19.34-55.17S1255,288.9,1255,288.9s22.46-51.22,38.61-47.55S1275.4,280,1275.4,280s36.52-41,47.48-35.07-22.05,35.48-22.05,35.48,39.33-20.83,42.87-13S1313.29,292,1313.29,292s51.12-12.83,43.76.66-39.62,16.64-39.62,16.64,51.4-6.23,41,6-41.94,14.31-41.94,14.31,33.23-5.55,23.52,5.35-34.51,12.22-34.51,12.22Z" />
      <ellipse class="cls-13" cx="1261.21" cy="353.28" rx="40.79" ry="49.18"
        transform="translate(-16.78 66.59) rotate(-3)" />
      <path class="cls-14"
        d="M1258.72,351.64a.82.82,0,0,1,.09-1.56,9,9,0,0,1,10.36,3.6.84.84,0,0,1-.17,1.16.91.91,0,0,1-1.16-.17,14.09,14.09,0,0,0-8.6-3A.84.84,0,0,1,1258.72,351.64Z" />
      <path class="cls-14"
        d="M1264.18,361.42c-.17,2-1.46,3.47-2.89,3.35S1258.84,363,1259,361s1.45-3.46,2.88-3.34S1264.34,359.46,1264.18,361.42Z" />
      <path class="cls-14"
        d="M1228.19,354.8a.6.6,0,0,1-.51-.33,1,1,0,0,1,.11-1.15,5.8,5.8,0,0,1,8.47-.6,1,1,0,0,1,.22,1.14.6.6,0,0,1-.87.28,8.64,8.64,0,0,0-7,.49A.57.57,0,0,1,1228.19,354.8Z" />
      <path class="cls-14"
        d="M1237.15,361.76c.6,1.88,0,3.75-1.39,4.19s-3-.74-3.55-2.62,0-3.76,1.39-4.19S1236.55,359.88,1237.15,361.76Z" />
      <path class="cls-15"
        d="M1239.28,381a83.66,83.66,0,0,0,26.54-2.78s.34,13-14,13.05C1243.56,391.33,1239.28,381,1239.28,381Z" />
      <path class="cls-16"
        d="M1220.41,351s-.08-23.71,30.21-22.28,41.59,47.24,48,45.1,15.09-26.27,12.91-35.49-12.3-34.68-52.9-34.15-39.33,12.51-43.21,24.49S1214.88,354.08,1220.41,351Z" />
      <path class="cls-13"
        d="M1296.68,364c-3.58,3.34-8.91,3.45-11.9.24s-2.49-8.51,1.1-11.85,8.91-3.45,11.9-.24S1300.27,360.67,1296.68,364Z" />
      <path class="cls-17"
        d="M1242.68,358.77v-.06l-.05-.3a21.83,21.83,0,0,0-.21-3v-.08c-.11-1-.23-2-.41-3a19.16,19.16,0,0,0-.63-2.67c-.11-.55-.27-1-.37-1.57l-.07-.19c-.14-.48-.29-1-.45-1.43a32.18,32.18,0,0,0-8.68-14.17h0a13.17,13.17,0,0,0-2.24-1.78.07.07,0,0,0-.08-.06l-.21-.14,0,0a21.35,21.35,0,0,0-3.14-1.56,2,2,0,0,0-.46-.12l-.06,0h0a11.53,11.53,0,0,0-9.88,1.32c-.25.2-.52.31-.7.49h-.07c-5.84,4.3-8.9,13.65-8.44,23.84,0,.57.08,1.2.11,1.77V356a55.89,55.89,0,0,0,1,5.89,30.51,30.51,0,0,0,1.15,4.29c2.94,8.95,8.31,15.6,14.42,17.75a13.38,13.38,0,0,0,4.29.78,18.78,18.78,0,0,0,2.71-.36h.08a13.43,13.43,0,0,0,3.35-1.54C1239.76,378.87,1243.14,369.31,1242.68,358.77Zm-33.52,2.06a2,2,0,0,1-.19-.61l-.08-.41a34.05,34.05,0,0,1-.47-3.77l0-.07a2.89,2.89,0,0,1-.06-1.06c-.63-8.88,1.54-17.13,5.92-21.66l0,0a14.57,14.57,0,0,1,2.27-1.83,9.75,9.75,0,0,1,4.84-1.61l.14,0,.09,0h0l.11,0a7.67,7.67,0,0,1,3,.52h0l.07.05a1.16,1.16,0,0,1,.67.17,13.67,13.67,0,0,1,4.66,2.78h0v.05c3.63,3,6.68,7.9,8.61,13.76a46.57,46.57,0,0,1,1.9,8.71v.08c.06.77.14,1.54.14,2.32v.07a4.66,4.66,0,0,1,.05,1.06v0l0,.05c.3,9.72-2.74,18.36-8.42,22a10,10,0,0,1-3.53,1.37h0a10.48,10.48,0,0,1-5.3-.46c-5.59-2-10.59-8.24-13.29-16.66a23,23,0,0,1-1.05-3.74l-.11-.59Z" />
      <g class="cls-18">
        <ellipse class="cls-15" cx="1225.44" cy="356.53" rx="16.58" ry="27.28"
          transform="translate(-14.37 53.72) rotate(-2.5)" />
      </g>
      <g class="cls-18">
        <ellipse class="cls-15" cx="1269.65" cy="357.9" rx="18.36" ry="27.04"
          transform="translate(-7.7 28.54) rotate(-1.28)" />
      </g>
      <path class="cls-17"
        d="M1288.72,361.06v0a38.5,38.5,0,0,0-.21-10.38h0a7.23,7.23,0,0,0-.18-1.32c-.12-.7-.33-1.44-.46-2.13a36.68,36.68,0,0,0-3.09-8.21v0a22.14,22.14,0,0,0-10-10.26,14.76,14.76,0,0,0-13.06,0c-.39.2-.76.42-1.14.63h0a13.85,13.85,0,0,0-1.5,1h0c-6.62,4.73-10.64,14.25-10.88,24.5v.07a26.78,26.78,0,0,0,0,3.35h0a5.78,5.78,0,0,0,.15,1.19.07.07,0,0,0-.06.08,41.07,41.07,0,0,0,1,5.81c1.5,6.15,4.22,11.22,7.87,14.75l0,.06h0a20.23,20.23,0,0,0,5.26,3.74,1.51,1.51,0,0,0,.37.14h0a10,10,0,0,0,1.54.64h0a15,15,0,0,0,4.69.7,14,14,0,0,0,6.43-1.54,14.57,14.57,0,0,0,2-1.16,9.76,9.76,0,0,0,1.88-1.42h0a6.45,6.45,0,0,0,1.18-1.21,16.35,16.35,0,0,0,1.49-1.63,24.55,24.55,0,0,0,3.74-6,1.17,1.17,0,0,0,.14-.38,30.13,30.13,0,0,0,2-5.86v-.07a35.73,35.73,0,0,0,.92-5ZM1250.9,365a41.18,41.18,0,0,1-.8-5.06v-.08a7.12,7.12,0,0,1-.17-1.31h0c-.07-1.13-.06-2.2-.06-3.34v-.09c.17-10.3,4.4-19.78,11.12-24h.07a12.68,12.68,0,0,1,1.34-.82c.14,0,.21,0,.26-.11a0,0,0,0,0,0,0,14.59,14.59,0,0,1,5.41-1.21,13.87,13.87,0,0,1,5.89,1.33,19.77,19.77,0,0,1,7.44,6.62,5.62,5.62,0,0,1,.67,1s0,0,0,0a22.81,22.81,0,0,1,1.68,3.06l.06.12a31.45,31.45,0,0,1,2.28,6.57c.31,1.3.55,2.61.73,3.93v.07a34.62,34.62,0,0,1,.31,6.72h0a39.36,39.36,0,0,1-.92,7l0,.06v0a39,39,0,0,1-2,5.79c0,.15-.1.23-.14.38a23.9,23.9,0,0,1-5.67,8h-.06a17.26,17.26,0,0,1-3.8,2.63,13.16,13.16,0,0,1-9.58.7h0a9.62,9.62,0,0,1-1.89-.71,6.71,6.71,0,0,1-.7-.36h0a19.29,19.29,0,0,1-3.08-2.12l0,0a5.88,5.88,0,0,1-.69-.59s0,0,0,0h0s0-.07-.11-.1V379s0,0-.05,0l0,0-.19-.19A29.53,29.53,0,0,1,1250.9,365Z" />
      <path class="cls-17"
        d="M1239,360a1.63,1.63,0,0,0,1.1-.26h0c.2-.13,4.93-3,12.19-.64a1.73,1.73,0,0,0,2.12-1.07,1.64,1.64,0,0,0-1.08-2.09c-8.75-3-14.77.82-15,1a1.68,1.68,0,0,0-.49,2.31A1.6,1.6,0,0,0,1239,360Z" />
      <path class="cls-19"
        d="M1159,1139.41c-8.7,8.74-13.72,15-26.25,31.83-32.5,43.68-41.91,123.51-49.48,195.46q-.74,7-1.46,14-.69,6.51-1.37,12.91H1030.2a62.3,62.3,0,0,1-15.06-1.83h0c12.51-112.63,48.32-218.76,96.69-301.66q3.86-6.61,7.82-13c2.17-3.51,12.34,5.39,22,14.86l1.23,1.22c2.35,2.33,4.66,4.65,6.78,6.81,7.63,7.75,12.19,18.87,12.64,27.72C1162.57,1132.63,1161.53,1136.88,1159,1139.41Z" />
      <path class="cls-12"
        d="M1391.84,1172.45c.05,22.83-1.93,48.24-5.09,74.06,0,0,0,0,0,0-6.61,54.27-18.35,110.21-26.89,147.08h-316c.16-.6,3.21-14.5,3.36-15.09v0c29.92-111.82,48.24-205.07,80.69-264.61,0-.08.08-.17.13-.25.4-.74.81-1.47,1.22-2.2.29-.52.58-1.06.89-1.57v0a188.83,188.83,0,0,1,11.52-17.92c25.83-35.42,60.36-53.11,112.6-47.77a223.78,223.78,0,0,1,22.24,3.44,265,265,0,0,1,30.8,8.14l.42.15c1.23.39,2.44.82,3.62,1.24h0q2.58.93,5.05,1.87l.14.06c69.92,26.93,72.26,72.45,72.26,72.45a2.23,2.23,0,0,0,0,.23q.7,4.26,1.25,8.8c.14,1.14.27,2.29.38,3.45C1391.38,1152.84,1391.8,1162.39,1391.84,1172.45Z" />
      <path class="cls-12"
        d="M1430.81,1131.09l-79.2,25.32s-159.08-16.81-199.2-31.88-45.47-47.78-45.47-47.78,53.25-37,130.77-34.25c7.29.24,14.77.84,22.46,1.86a219.32,219.32,0,0,1,37.81,8.28C1391,1082.25,1430.81,1131.09,1430.81,1131.09Z" />
      <path class="cls-19"
        d="M1294.18,1037.14l-3-28.26-.86-8.22-5.07-48.37-10.85,45-6.51,27-2.06,8.54c-1.4,5.8-5.21,6.32-10.55,10.54-2.17,1.71-15.89,12-4.25,20.13,14.51,10.18,46.33,5.44,60.4-6.25C1311.37,1057.15,1295.14,1046.27,1294.18,1037.14Z" />
      <ellipse class="cls-11" cx="1390.55" cy="1152.01" rx="45.57" ry="19.35"
        transform="translate(-354.83 688.95) rotate(-24.78)" />
      <path class="cls-20" d="M1262.89,922.08a61.13,61.13,0,0,0-9.2,23.62c-2.38,14.2,23.56-12.89,23.56-12.89Z" />
      <ellipse class="cls-19" cx="1286.82" cy="968.74" rx="49.78" ry="41.28"
        transform="translate(-181.65 1630.52) rotate(-61.23)" />
      <path class="cls-11"
        d="M1329.14,975.7l-17.87-9.19a14.59,14.59,0,0,1-7.68-10c-1.48-7.46-4.88-12.31-22.5-18.43-22.32-7.74-31.73-26.51-29.63-39,2.16-12.69,16.51-16.26,25.38-6.36s9.47-5.68,20.66-3c20.92,5,18.67,21.76,35.12,27.59,21.56,7.65,53.43,38.72,20.71,69.18Z" />
      <path class="cls-14"
        d="M1285.55,966a.82.82,0,0,1-.13-.73.84.84,0,0,1,1-.57,9.08,9.08,0,0,1,7,8.62.85.85,0,0,1-.76.91.92.92,0,0,1-.91-.76,14.26,14.26,0,0,0-5.81-7.16A.9.9,0,0,1,1285.55,966Z" />
      <path class="cls-14"
        d="M1285,977.32c-1.18,1.61-3.09,2.21-4.26,1.35s-1.14-2.87,0-4.47,3.1-2.21,4.26-1.34S1286.22,975.72,1285,977.32Z" />
      <path class="cls-14"
        d="M1257.6,952.45a.61.61,0,0,1-.26-.56,1,1,0,0,1,.71-.93,5.86,5.86,0,0,1,7.6,4,1,1,0,0,1-.41,1.1.62.62,0,0,1-.91-.22,8.73,8.73,0,0,0-6.31-3.33A.6.6,0,0,1,1257.6,952.45Z" />
      <path class="cls-14"
        d="M1261.6,963.21c-.49,1.94-2,3.22-3.43,2.86s-2.15-2.21-1.66-4.14,2-3.22,3.43-2.87S1262.09,961.27,1261.6,963.21Z" />
      <path class="cls-20"
        d="M1353.33,986.54s-23.67,22.74-42.7,17.67c0,0,23-15.4-3.07-40.4C1307.56,963.81,1337.84,970.44,1353.33,986.54Z" />
      <path class="cls-19"
        d="M1321.65,991.84c-4.87,1-9.51-1.79-10.37-6.14s2.39-8.65,7.26-9.61,9.51,1.78,10.37,6.13S1326.52,990.88,1321.65,991.84Z" />
      <path class="cls-20"
        d="M1307.56,963.81s-6.59,24.26-13,26.81-38.49-7.74-50.9-19.08h0c-6.07,14.86-.67,32.17,13.11,40.4a47.53,47.53,0,0,0,15,5.77h0c10.92,2.2,22.5,1.84,30.41-6,2.41-2.39,5.6-21.6,5.6-21.6s2.66-11,10.83-14C1318.54,976.09,1314,967.07,1307.56,963.81Z" />
      <path class="cls-11"
        d="M1282.85,892.45a8.28,8.28,0,0,1-3.25-.73l.44-1c5,2.11,7-1.74,7.12-1.92l1,.51A6.19,6.19,0,0,1,1282.85,892.45Z" />
      <path class="cls-15"
        d="M1277.26,929.48c-.87-.67-21.22-16.46-17.39-29.24,1.11-3.7,2.68-5.87,4.79-6.61,3.38-1.19,7.34,1.53,10.84,3.92.51.36,1,.7,1.51,1l-.31.46-1.52-1c-3.4-2.32-7.22-4.94-10.33-3.86-1.93.68-3.38,2.72-4.43,6.23-3.73,12.42,17,28.48,17.18,28.64Z" />
      <path class="cls-15"
        d="M1340.07,925.26c-24.35-5.89-30.45-23.3-30.51-23.48l.53-.17c.07.16,6.07,17.29,30.12,23.1Z" />
      <path class="cls-15"
        d="M1257.94,994.31c-.9,2.31-.16,4.76,1.66,5.46s4-.59,4.91-2.9.16-4.75-1.65-5.46S1258.84,992,1257.94,994.31Z" />
      <path class="cls-19"
        d="M1469.41,1390.4a62.43,62.43,0,0,1-19.77,3.2h-45.53c-1.89-47.62-6.83-99.17-17.36-147.08,0,0,0,0,0,0-2.41-11-5.12-21.82-8.16-32.34-5.33-18.45-7.88-26.39-12.16-36.21-.41-.92-.82-1.85-1.25-2.8-3.11-6.9,2.73-18.7,12.5-27.09a44.48,44.48,0,0,1,10.11-6.58c.75-.34,1.53-.67,2.31-1a48.11,48.11,0,0,1,19.19-2.56c8.22.47,15,2.72,16.58,5.16a46.79,46.79,0,0,1,2.42,4.44c4,8.22,8,21.09,13.68,39.68C1459.23,1243.65,1468.28,1310.57,1469.41,1390.4Z" />
      <path class="cls-21"
        d="M1442.21,1318.92c-2.75,0-5.36-1.45-7.38-4.15a18.23,18.23,0,0,1-3.35-10c-.37-8.09,4-14.89,9.75-15.16h.34c5.61,0,10.41,6.28,10.76,14.2h0c.37,8.09-4,14.89-9.75,15.15Zm-.63-26.6h-.22c-4.22.19-7.42,5.7-7.13,12.27a15.57,15.57,0,0,0,2.81,8.52c1.54,2.05,3.46,3.32,5.41,3,4.23-.2,7.43-5.69,7.13-12.25h0C1449.29,1297.45,1445.72,1292.32,1441.58,1292.32Z" />
      <path class="cls-11"
        d="M1128.71,1114.29l-1.63-.82c7.9-15.74,27.44-33.48,27.63-33.65l1.23,1.36C1155.75,1081.35,1136.46,1098.86,1128.71,1114.29Z" />
      <path class="cls-19"
        d="M736.72,675.71a61.51,61.51,0,0,1-24.21-10.94c-24-17.78-38.38-52.45-46.47-112.42-3.72-27.62-18.28-61.7-18.42-62l59.49-26.5c.74,1.72,18.3,42.67,23.26,79.48,2.81,20.83,15.41-108.25,27.29-119.61,7.28-7,33.26,7.5,33.26,7.5,3,16.94,11,52.06,13.26,104.25,1.35,31.6.91,57.41-1.31,76.69-1.57,13.61-4,24.46-7.58,33.16-9.32,23-25.49,29.05-34.3,30.63A63.81,63.81,0,0,1,736.72,675.71Z" />
      <path class="cls-22"
        d="M747.84,670.06c-.66,0-1.32,0-2-.08a21.22,21.22,0,0,1-8.54-2.34c-2.45-1.38-3.72-3.12-3.58-4.93.28-3.54,6-5.81,13.09-5.34a21.5,21.5,0,0,1,8.54,2.34c2.45,1.38,3.73,3.13,3.59,4.94C758.68,667.84,754,670.06,747.84,670.06ZM744.79,659c-5.44,0-9.23,1.88-9.38,3.84-.09,1.09.9,2.3,2.71,3.31a19.35,19.35,0,0,0,7.84,2.13c6.44.56,11.1-1.59,11.27-3.76.09-1.1-.91-2.3-2.72-3.32a19.63,19.63,0,0,0-7.84-2.13C746,659,745.4,659,744.79,659Z" />
      <path class="cls-22"
        d="M718.66,609.07a.85.85,0,0,1-.85-.8c0-.38-1.48-36.82,14-64.06a.85.85,0,1,1,1.48.84c-15.22,26.82-13.76,62.78-13.75,63.13a.85.85,0,0,1-.81.89Z" />
      <path class="cls-17"
        d="M573.28,387.19s4.61-12.9-10.31-18.58-7.26,30.67-44.91,23.84-26.13,10.4-39.28,21.23-64.51-20.55-87.4,24.54,8.13,82,74.25,89.6,37,42.67,94.76,26.49S600.5,445.46,585.84,430,573.28,387.19,573.28,387.19Z" />
      <path class="cls-10"
        d="M710.44,738.84a57,57,0,0,1-7.15,9.24h-71.1a5.6,5.6,0,0,0-5.57,6.24,42.91,42.91,0,0,1,.25,4.55,40.83,40.83,0,1,1-81.54-3,7.19,7.19,0,0,0-7.13-7.79H448.89c.29-4.24.75-10.75,1.4-19.05,1.37-17.14,3.57-41.89,6.76-69.95v0c.14-1.25.29-2.5.43-3.77,0-.24.07-.49.09-.74,4.6-39.5,11.15-85,20.11-124.86.16-.73.33-1.45.5-2.17h0C481,515,484.13,503,487.48,492c.5-1.62,1-3.23,1.51-4.81,1.7-5.35,3.48-10.46,5.32-15.27.45-1.19.91-2.36,1.38-3.52q2.06-5.12,4.21-9.73s13-34,63.31-37.83a127.81,127.81,0,0,1,16.25-.18q5,.24,10.48.87c7.74.89,15.6,1.31,23.34,1.88,30.13,2.22,58.45,6.7,70.94,50.56.82,2.87,1.58,5.92,2.25,9.15,2.25,10.67,4.46,22.33,6.57,34.82a1294.2,1294.2,0,0,1,15.77,143.86h0C710.18,687.24,710.8,713.16,710.44,738.84Z" />
      <path class="cls-10"
        d="M448.53,447.71l42.67,41.68S660,547.55,687.14,523.69c18.66-16.39,29.89-41,25.06-54.56,0,0-43.8-47.7-118.82-50.06-10.87-.34-18.17-.6-28.77-2.05C503.86,408.7,448.53,447.71,448.53,447.71Z" />
      <path class="cls-19"
        d="M561,416.94a22.38,22.38,0,0,0,19.22-12L592,382.2l3.43-6.6,20.21-38.76-6.25,41.34L605.65,403l-1.07,7.07a11.36,11.36,0,0,0,8.28,12.7l.1,0c2.63,5.24,6,15.73-6.81,18.78-15.07,3.57-37.9-10-45.33-24.62Z" />
      <path class="cls-11"
        d="M594.24,380.67c-.09,13.48,11.32,22.38,11.32,22.38l.09-.06,3.75-24.81C605.21,376.23,594.23,380.44,594.24,380.67Z" />
      <ellipse class="cls-19" cx="612.25" cy="340.91" rx="38.68" ry="48.26"
        transform="translate(-63.47 155.25) rotate(-13.75)" />
      <path class="cls-14"
        d="M616,340.38a.87.87,0,0,0,.44-.66.88.88,0,0,0-.77-1c-.28,0-6.78-1.47-10.34,5.46a.89.89,0,0,0,.35,1.21,1,1,0,0,0,1.19-.35,15,15,0,0,1,8.59-4.55A.82.82,0,0,0,616,340.38Z" />
      <path class="cls-14"
        d="M611.73,351.66c.47,2.07,2.06,3.47,3.54,3.12s2.3-2.32,1.83-4.39-2.06-3.46-3.54-3.11S611.26,349.59,611.73,351.66Z" />
      <path class="cls-14"
        d="M647.46,336.64a.85.85,0,0,0,.65-.44.91.91,0,0,0-.33-1.22,9.41,9.41,0,0,0-11.61,1.07.9.9,0,0,0-.13,1.25,1,1,0,0,0,1.23.13,14.84,14.84,0,0,1,9.65-.89A.8.8,0,0,0,647.46,336.64Z" />
      <path class="cls-14"
        d="M639.31,345.45c-.35,2.1.6,4,2.1,4.25s3-1.26,3.33-3.36-.6-4-2.1-4.25S639.65,343.35,639.31,345.45Z" />
      <path class="cls-17"
        d="M589.42,315.18c3.55,8.09,23.06,9.22,36.88,6.25C643.53,317.72,648,340,652,330.13s5.09-38.49-13.3-50.78-63.76-3.7-67.77,11.47C565,313.16,586.38,308.26,589.42,315.18Z" />
      <path class="cls-17"
        d="M572.48,299.88s12-.21,12.88,5,11.33,12.76,4.69,18-7.91,7.69-6.4,13.34c1.06,3.94-3.48,14.5-3.85,23.09-.16,3.73,3.79,10.48,3.79,10.48s-31.08-2-34.62-36.41C546.67,311.07,564.58,298.91,572.48,299.88Z" />
      <path class="cls-19"
        d="M577.45,357.89c5.3,2.95,11.33,1.76,13.46-2.64s-.44-10.37-5.75-13.32-11.32-1.76-13.45,2.65S572.15,355,577.45,357.89Z" />
      <path class="cls-14"
        d="M522,503.56c-4,5.37-23.64-2.78-43.93-18.2s-33.51-32.28-29.54-37.65,23.64,2.79,43.93,18.21S526,498.19,522,503.56Z" />
      <path class="cls-19"
        d="M448.75,660.63s25.9-20.5,44.8-17,40.4,22.44,28.23,22.8-27.84-3.54-27.84-3.54,33.08,9.92,27.43,16.77S487,677.59,487,677.59s38.43,15,31,19.7-36.52-6.87-36.52-6.87,35.21,15.39,26.48,20.67-29-12.91-34.67-6.07-17.43,34.43-38.08,20.86Z" />
      <path class="cls-22"
        d="M493.94,663.6a.66.66,0,0,1-.3-.07c-.1,0-8.73-4.06-13.49-1.17a.68.68,0,0,1-1-.24.69.69,0,0,1,.24-1c5.44-3.31,14.46.91,14.84,1.09a.71.71,0,0,1-.31,1.36Z" />
      <path class="cls-22"
        d="M487,678.31a.66.66,0,0,1-.32-.08c-.07,0-8.5-4.12-16.34-1.31a.76.76,0,0,1-.92-.43.73.73,0,0,1,.44-.92c8.43-3,17.09,1.19,17.46,1.38a.71.71,0,0,1,.32,1A.7.7,0,0,1,487,678.31Z" />
      <path class="cls-22"
        d="M481.53,691.14a.6.6,0,0,1-.31-.08c-.1,0-10.33-4.82-15.15-1.32a.71.71,0,1,1-.84-1.15c5.49-4,16.15,1,16.61,1.19a.71.71,0,0,1-.31,1.36Z" />
      <path class="cls-19"
        d="M790.47,468.68s31.08,5.18,44.31-6.24,21.65-36.11,12-30.8-20.21,15.56-20.21,15.56,21.48-23,14-25.72-25.95,17.4-25.95,17.4S838,409.49,830.14,409.2s-25.51,22.17-25.51,22.17,20.71-28.22,11.54-28.34-17,23.43-24.42,20.68-36.52-12.49-38.24,9.21Z" />
      <path class="cls-22"
        d="M816.05,455.22H816a.63.63,0,0,1-.64-.65.64.64,0,0,1,.65-.63h.08c5,0,9.91-7,10-7.11a.64.64,0,0,1,1.06.73C826.85,447.88,821.72,455.22,816.05,455.22Z" />
      <path class="cls-22"
        d="M802,448.33a.64.64,0,0,1-.12-1.27c7.41-1.4,12.16-8.47,12.21-8.53a.69.69,0,0,1,.9-.19.64.64,0,0,1,.17.89c-.2.31-5.1,7.59-13,9.09Z" />
      <path class="cls-22"
        d="M793.3,440.33a3.81,3.81,0,0,1-.59,0,.63.63,0,0,1-.58-.7.64.64,0,0,1,.7-.58c5.33.45,11.21-7.92,11.27-8a.62.62,0,0,1,.89-.17.65.65,0,0,1,.17.9C804.91,432.1,799.18,440.33,793.3,440.33Z" />
      <path class="cls-11"
        d="M617.36,371.14l-.83-1.64c.57-.28,13.86-6.81,21-1.82l-1.06,1.5C630.2,364.78,617.48,371.08,617.36,371.14Z" />
      <path class="cls-19"
        d="M435.26,725.88c-31.88-15.39-78-51-83.37-101.08-4.12-38.53,12.83-80.73,50.36-125.42a231.45,231.45,0,0,1,53.84-46.83S466.18,451,486.75,466c24.8,18,27.55,33.27,27.55,33.27-26.82,21.39-90.61,64.88-91.4,102.12-.47,21.78,12,43.06,35.27,54.27Z" />
      <path class="cls-19"
        d="M942,911.62c-13.94,11.6-24.88,16.74-24.88,16.74s-31.75-21.62-31.41-25.45c.78-8.86,6.27-25.95,7.23-34.78.41-3.84,2.68-16.62,6.55-16.7,3.36-.07,6.38,11,7.18,16.39,16.69-19.13,49.64-39.54,17.6,3.1l.07.05c3.64-4,23.89-26.32,27.36-19.35,3.06,6.16-10.77,22.74-16.69,29.4l.17.19c6.6-6.25,22.94-20.92,24-14.13,1.28,8.51-13.45,27-13.45,27s19.34-23.26,22-13.61c1.83,6.58-16.81,23-23,29A14.21,14.21,0,0,1,942,911.62Z" />
      <path class="cls-6"
        d="M732.55,1412.06H591.29l1.51-27.85,2.18-40.65,1-18.68,0-.87,2.87.44h0L670,1335.2l59.33,9S734.59,1360.74,732.55,1412.06Z" />
      <path class="cls-11"
        d="M476.38,1363.22c3.89,16.62,65.93,34,140.19,16.43s132.2-36.32,128.31-52.94-68.14-24.83-142.4-7.22S472.49,1346.61,476.38,1363.22Z" />
      <path class="cls-6"
        d="M729.37,1344.17l-37.17,67.89H478.56l7.53-38.17a2.53,2.53,0,0,1,.12-.36c2.19-6.13,25.08-14,31-15.45,18.7-4.61,47.42-10,77.74-14.52,25.56-3.79,52.25-6.93,75.06-8.36C704.91,1333,730.68,1334.75,729.37,1344.17Z" />
      <path class="cls-23"
        d="M722.64,1133.09c-11.45-59.67-45.79-112.28-93.83-111.88-11.41.1-61.62,11.52-72,15.69-78.56,31.53-70.37,50-71.68,129.95-1.26,76.76-9,190.13-8.76,193.28,143.14-64.07,268.53-33.42,268.53-33.42C745.93,1213.16,724.92,1138.77,722.64,1133.09Z" />
      <path class="cls-19"
        d="M569,1030.5c12.55,14.47,26.63,19.12,45,19.12,27.81,0,14.85-28.41,14.85-28.41-6.83-.16-10.56-3.59-11.14-10.34l-.67-8.3-.34-4.12-1.1-13.15-1-11.8-4-48.43-12.82,49.31-2.18,8.38-7.51,28.9a26.46,26.46,0,0,1-18.95,18.81Z" />
      <path class="cls-11"
        d="M595.57,982.76s8.21,14.3,21.09,15.69l-1.1-13.15C607.52,983.72,595.57,982.76,595.57,982.76Z" />
      <path class="cls-11"
        d="M623.9,871.94s-5.14-36.42-37.53-31.38S567.26,867.43,563.11,875s15,21.6,30.78,20S623.9,871.94,623.9,871.94Z" />
      <path class="cls-11"
        d="M546,946.06s5.46,6.1,9.19,22.62c5.45,24.17,34.37,19.87,37.3,10.54.37-1.15-20-36.26-20-36.26l-10.2-.38Z" />
      <ellipse class="cls-19" cx="604.02" cy="932.61" rx="45.88" ry="56.2"
        transform="translate(-374.28 405.8) rotate(-28.77)" />
      <path class="cls-11"
        d="M599.43,886.07c-.3,2.12,19.85,24.09-24.32,55.79s-46.67-40.8-12.35-61c49.56-29.17,75.23.56,77,15.32S599.43,886.07,599.43,886.07Z" />
      <path class="cls-11" d="M576,931s-8.39,30.75,9.59,47.85c0,0-17.87-6.12-20.59-10.53s-8.65-22.46-8.65-22.46Z" />
      <path class="cls-19"
        d="M573.1,958.94c6.92,1.86,13.55-1.15,14.82-6.72s-3.33-11.6-10.26-13.46-13.56,1.15-14.82,6.73S566.17,957.08,573.1,958.94Z" />
      <path class="cls-14"
        d="M608.19,931a1.07,1.07,0,0,0,.32-.87,1,1,0,0,0-1.16-.91,11.35,11.35,0,0,0-10.46,9,1,1,0,0,0,.73,1.27,1.17,1.17,0,0,0,1.29-.74,17.9,17.9,0,0,1,8.68-7.52A1.08,1.08,0,0,0,608.19,931Z" />
      <path class="cls-14"
        d="M606.35,944.91c1.11,2.21,3.32,3.34,4.94,2.53s2-3.25.92-5.46-3.32-3.35-4.94-2.54S605.24,942.7,606.35,944.91Z" />
      <path class="cls-14"
        d="M643.54,918a1,1,0,0,0-.09-2c-.32-.09-7.67-2.91-13.12,4.42a1,1,0,0,0,.19,1.45,1.16,1.16,0,0,0,1.47-.19,17.9,17.9,0,0,1,10.89-3.68A1.06,1.06,0,0,0,643.54,918Z" />
      <path class="cls-14"
        d="M636.51,930.23c.18,2.47,1.78,4.36,3.59,4.22s3.11-2.24,2.94-4.71-1.79-4.36-3.59-4.22S636.34,927.77,636.51,930.23Z" />
      <g class="cls-18">
        <ellipse class="cls-15" cx="602.97" cy="941.62" rx="17.74" ry="25.92"
          transform="translate(-322.45 314.07) rotate(-23.22)" />
      </g>
      <g class="cls-18">
        <ellipse class="cls-15" cx="645.15" cy="926.5" rx="15.38" ry="25.58"
          transform="translate(-362.03 416.39) rotate(-28.29)" />
      </g>
      <path class="cls-6"
        d="M624,940.17a1.55,1.55,0,0,1,0-.21,37.26,37.26,0,0,0-2.25-7.47h0a29.06,29.06,0,0,0-1.35-3c-4.39-8.53-11.65-14.88-19.13-16.28a16.78,16.78,0,0,0-2.81-.31,14.28,14.28,0,0,0-11.5,5.22c-.16.18-.31.37-.45.56-3.45,4.41-4.93,10.68-4.21,17.66.09,1.05.26,2.09.46,3.16.12.61.25,1.23.41,1.85v0a35.94,35.94,0,0,0,1.68,5.27,37.61,37.61,0,0,0,1.9,4.06c.35.63.71,1.25,1.1,1.84l0,0h0a31.54,31.54,0,0,0,12.5,11.91c.47.23.95.44,1.43.64a18.35,18.35,0,0,0,6.49,1.39,14.49,14.49,0,0,0,5.69-1l.19-.07a14.48,14.48,0,0,0,1.43-.69,15.38,15.38,0,0,0,4.19-3.46c3-3.57,4.69-8.51,4.81-14.13A35.07,35.07,0,0,0,624,940.17Zm-1.18,7a24.41,24.41,0,0,1-1.46,8l0,0v0a.1.1,0,0,0,0,0,16.74,16.74,0,0,1-2.88,5,12.85,12.85,0,0,1-3.59,3,11.53,11.53,0,0,1-1.06.52,12.9,12.9,0,0,1-5.5,1.08,16.62,16.62,0,0,1-6.69-1.61c-.28-.12-.55-.26-.83-.4-5-2.49-9.52-7.21-12.67-13.12h0v0c-.5-.94-1-1.94-1.4-2.94s-.78-1.92-1.1-2.92l0-.07h0a31.78,31.78,0,0,1-1.16-4.49,29.64,29.64,0,0,1-.52-4.22v0a20,20,0,0,1,0-2.32.62.62,0,0,1,0-.13v-.25a25.52,25.52,0,0,1,.45-4.29,19.27,19.27,0,0,1,3.08-7.62c.27-.38.55-.75.84-1.09a12.62,12.62,0,0,1,10.15-4.6,12.23,12.23,0,0,1,2.09.2h0c7.18,1.12,14.21,7.29,18.42,15.61v0c.5,1,.94,2,1.36,3h0a37.63,37.63,0,0,1,2,6.69.25.25,0,0,1,0,.08A31.53,31.53,0,0,1,622.81,947.17Z" />
      <path class="cls-6"
        d="M634.6,938.33a40.32,40.32,0,0,1-4.12-8.29h-.67c.29.68.58,1.35.89,2,.11.21.21.43.33.65l0,.09c.16.31.31.61.47.9l.13.26.47.84a1.09,1.09,0,0,1,.08.15c.19.32.38.65.58,1,.06.11.12.2.18.29s.12.2.19.29h0l.21.34.63.91.21.31.25.36a3.3,3.3,0,0,0,.22.3c.06.07.12.16.17.23l.06.08a.56.56,0,0,0,.05.08c.25.33.49.65.75,1h0C635.36,939.5,635,938.92,634.6,938.33Zm0,0a40.32,40.32,0,0,1-4.12-8.29h-.67c.29.68.58,1.35.89,2,.11.21.21.43.33.65l0,.09c.16.31.31.61.47.9l.13.26.47.84a1.09,1.09,0,0,1,.08.15c.19.32.38.65.58,1,.06.11.12.2.18.29s.12.2.19.29h0l.21.34.63.91.21.31.25.36a3.3,3.3,0,0,0,.22.3c.06.07.12.16.17.23l.06.08a.56.56,0,0,0,.05.08c.25.33.49.65.75,1h0C635.36,939.5,635,938.92,634.6,938.33Zm0,0a40.32,40.32,0,0,1-4.12-8.29h-.67c.29.68.58,1.35.89,2,.11.21.21.43.33.65l0,.09c.16.31.31.61.47.9l.13.26.47.84a1.09,1.09,0,0,1,.08.15c.19.32.38.65.58,1,.06.11.12.2.18.29s.12.2.19.29h0l.21.34.63.91.21.31.25.36a3.3,3.3,0,0,0,.22.3c.06.07.12.16.17.23l.06.08a.56.56,0,0,0,.05.08c.25.33.49.65.75,1h0C635.36,939.5,635,938.92,634.6,938.33Zm0,0a40.32,40.32,0,0,1-4.12-8.29h-.67c.29.68.58,1.35.89,2,.11.21.21.43.33.65l0,.09c.16.31.31.61.47.9l.13.26.47.84a1.09,1.09,0,0,1,.08.15c.19.32.38.65.58,1,.06.11.12.2.18.29s.12.2.19.29h0l.21.34.63.91.21.31.25.36a3.3,3.3,0,0,0,.22.3c.06.07.12.16.17.23l.06.08a.56.56,0,0,0,.05.08c.25.33.49.65.75,1h0C635.36,939.5,635,938.92,634.6,938.33Zm0,0a40.32,40.32,0,0,1-4.12-8.29h-.67c.29.68.58,1.35.89,2,.11.21.21.43.33.65l0,.09c.16.31.31.61.47.9l.13.26.47.84a1.09,1.09,0,0,1,.08.15c.19.32.38.65.58,1,.06.11.12.2.18.29s.12.2.19.29h0l.21.34.63.91.21.31.25.36a3.3,3.3,0,0,0,.22.3c.06.07.12.16.17.23l.06.08a.56.56,0,0,0,.05.08c.25.33.49.65.75,1h0C635.36,939.5,635,938.92,634.6,938.33Zm0,0a40.32,40.32,0,0,1-4.12-8.29h-.67c.29.68.58,1.35.89,2,.11.21.21.43.33.65l0,.09c.16.31.31.61.47.9l.13.26.47.84a1.09,1.09,0,0,1,.08.15c.19.32.38.65.58,1,.06.11.12.2.18.29s.12.2.19.29h0l.21.34.63.91.21.31.25.36a3.3,3.3,0,0,0,.22.3c.06.07.12.16.17.23l.06.08a.56.56,0,0,0,.05.08c.25.33.49.65.75,1h0C635.36,939.5,635,938.92,634.6,938.33Zm0,0a40.32,40.32,0,0,1-4.12-8.29h-.67c.29.68.58,1.35.89,2,.11.21.21.43.33.65l0,.09c.16.31.31.61.47.9l.13.26.47.84a1.09,1.09,0,0,1,.08.15c.19.32.38.65.58,1,.06.11.12.2.18.29s.12.2.19.29h0l.21.34.63.91.21.31.25.36a3.3,3.3,0,0,0,.22.3c.06.07.12.16.17.23l.06.08a.56.56,0,0,0,.05.08c.25.33.49.65.75,1h0C635.36,939.5,635,938.92,634.6,938.33Zm28.78-12.53a42.33,42.33,0,0,0-3.58-10.08c-4.77-9.46-12.6-16.23-20-16.44-.2,0-.43,0-.62,0h0a10.19,10.19,0,0,0-2.37.27h0a10.88,10.88,0,0,0-3,1.22,12.27,12.27,0,0,0-3.17,2.72c-4,4.77-5.21,12.9-3.26,21.7.13.56.26,1.14.4,1.69v0c.27,1,.6,2.08,1,3.1h0a41.88,41.88,0,0,0,2.81,6.4c.45.82.92,1.62,1.41,2.41a35.06,35.06,0,0,0,7.36,8.44h0v0a18,18,0,0,0,10.61,4.43c.22,0,.44,0,.66,0h.07a11.11,11.11,0,0,0,5-1.32,11.7,11.7,0,0,0,3.47-2.89C664.09,942.72,665.31,934.6,663.38,925.8Zm-13.49,24.1s0,0,0,0,0,0-.05,0a15.22,15.22,0,0,1-6.55-2.53,28.49,28.49,0,0,1-7.18-6.88l-.05-.08h0a2.17,2.17,0,0,0-.23-.3l0,0c-.4-.56-.8-1.14-1.16-1.73a40.32,40.32,0,0,1-4.12-8.29h0c-.38-1.07-.74-2.17-1-3.26h0c-.17-.64-.32-1.29-.47-1.94a32.65,32.65,0,0,1-.6-11.59,17.73,17.73,0,0,1,3.31-8.38h0a1.24,1.24,0,0,1,.19-.26,10.2,10.2,0,0,1,3-2.47,9,9,0,0,1,3.15-1,8.78,8.78,0,0,1,1.71-.11c7.14.2,14.73,7.16,19.13,16.72a41.66,41.66,0,0,1,2.84,8.46,1,1,0,0,1,0,.17v0s0,.06,0,.08,0,0,0,.06v.05c1.7,8.15.58,15.51-3,19.83A9.43,9.43,0,0,1,651.9,950h0a6,6,0,0,1-.95,0,7.36,7.36,0,0,1-.81-.06h0A.72.72,0,0,1,649.89,949.9ZM634.6,938.33a40.32,40.32,0,0,1-4.12-8.29h-.67c.29.68.58,1.35.89,2,.11.21.21.43.33.65l0,.09c.16.31.31.61.47.9l.13.26.47.84a1.09,1.09,0,0,1,.08.15c.19.32.38.65.58,1,.06.11.12.2.18.29s.12.2.19.29h0l.21.34.63.91.21.31.25.36a3.3,3.3,0,0,0,.22.3c.06.07.12.16.17.23l.06.08a.56.56,0,0,0,.05.08c.25.33.49.65.75,1h0C635.36,939.5,635,938.92,634.6,938.33Zm0,0a40.32,40.32,0,0,1-4.12-8.29h-.67c.29.68.58,1.35.89,2,.11.21.21.43.33.65l0,.09c.16.31.31.61.47.9l.13.26.47.84a1.09,1.09,0,0,1,.08.15c.19.32.38.65.58,1,.06.11.12.2.18.29s.12.2.19.29h0l.21.34.63.91.21.31.25.36a3.3,3.3,0,0,0,.22.3c.06.07.12.16.17.23l.06.08a.56.56,0,0,0,.05.08c.25.33.49.65.75,1h0C635.36,939.5,635,938.92,634.6,938.33Zm0,0a40.32,40.32,0,0,1-4.12-8.29h-.67c.29.68.58,1.35.89,2,.11.21.21.43.33.65l0,.09c.16.31.31.61.47.9l.13.26.47.84a1.09,1.09,0,0,1,.08.15c.19.32.38.65.58,1,.06.11.12.2.18.29s.12.2.19.29h0l.21.34.63.91.21.31.25.36a3.3,3.3,0,0,0,.22.3c.06.07.12.16.17.23l.06.08a.56.56,0,0,0,.05.08c.25.33.49.65.75,1h0C635.36,939.5,635,938.92,634.6,938.33Zm0,0a40.32,40.32,0,0,1-4.12-8.29h-.67c.29.68.58,1.35.89,2,.11.21.21.43.33.65l0,.09c.16.31.31.61.47.9l.13.26.47.84a1.09,1.09,0,0,1,.08.15c.19.32.38.65.58,1,.06.11.12.2.18.29s.12.2.19.29h0l.21.34.63.91.21.31.25.36a3.3,3.3,0,0,0,.22.3c.06.07.12.16.17.23l.06.08a.56.56,0,0,0,.05.08c.25.33.49.65.75,1h0C635.36,939.5,635,938.92,634.6,938.33Zm0,0a40.32,40.32,0,0,1-4.12-8.29h-.67c.29.68.58,1.35.89,2,.11.21.21.43.33.65l0,.09c.16.31.31.61.47.9l.13.26.47.84a1.09,1.09,0,0,1,.08.15c.19.32.38.65.58,1,.06.11.12.2.18.29s.12.2.19.29h0l.21.34.63.91.21.31.25.36a3.3,3.3,0,0,0,.22.3c.06.07.12.16.17.23l.06.08a.56.56,0,0,0,.05.08c.25.33.49.65.75,1h0C635.36,939.5,635,938.92,634.6,938.33Zm0,0a40.32,40.32,0,0,1-4.12-8.29h-.67c.29.68.58,1.35.89,2,.11.21.21.43.33.65l0,.09c.16.31.31.61.47.9l.13.26.47.84a1.09,1.09,0,0,1,.08.15c.19.32.38.65.58,1,.06.11.12.2.18.29s.12.2.19.29h0l.21.34.63.91.21.31.25.36a3.3,3.3,0,0,0,.22.3c.06.07.12.16.17.23l.06.08a.56.56,0,0,0,.05.08c.25.33.49.65.75,1h0C635.36,939.5,635,938.92,634.6,938.33Zm0,0a40.32,40.32,0,0,1-4.12-8.29h-.67c.29.68.58,1.35.89,2,.11.21.21.43.33.65l0,.09c.16.31.31.61.47.9l.13.26.47.84a1.09,1.09,0,0,1,.08.15c.19.32.38.65.58,1,.06.11.12.2.18.29s.12.2.19.29h0l.21.34.63.91.21.31.25.36a3.3,3.3,0,0,0,.22.3c.06.07.12.16.17.23l.06.08a.56.56,0,0,0,.05.08c.25.33.49.65.75,1h0C635.36,939.5,635,938.92,634.6,938.33Zm0,0a40.32,40.32,0,0,1-4.12-8.29h-.67c.29.68.58,1.35.89,2,.11.21.21.43.33.65l0,.09c.16.31.31.61.47.9l.13.26.47.84a1.09,1.09,0,0,1,.08.15c.19.32.38.65.58,1,.06.11.12.2.18.29s.12.2.19.29h0l.21.34.63.91.21.31.25.36a3.3,3.3,0,0,0,.22.3c.06.07.12.16.17.23l.06.08a.56.56,0,0,0,.05.08c.25.33.49.65.75,1h0C635.36,939.5,635,938.92,634.6,938.33Z" />
      <path class="cls-11"
        d="M631.64,929.87a1.63,1.63,0,0,0,.83-1.15,1.61,1.61,0,0,0-1.32-1.85c-.29,0-7-1.07-13.74,4.83a1.6,1.6,0,0,0-.15,2.27,1.62,1.62,0,0,0,2.28.14c5.61-4.9,11-4.07,11.06-4.07A1.55,1.55,0,0,0,631.64,929.87Z" />
      <path class="cls-11"
        d="M556.5,895.86s-21.24-30-47.86-10.93-12.08,32-5.05,41.08c5.24,6.78,23.26,12.42,36.65,3.88S556.5,895.86,556.5,895.86Z" />
      <path class="cls-11"
        d="M577,1000.33a.83.83,0,0,1-.46-.07.8.8,0,0,1-.37-1.07,36,36,0,0,1,13.61-14,.8.8,0,1,1,.8,1.38,35,35,0,0,0-13,13.32A.79.79,0,0,1,577,1000.33Z" />
      <path class="cls-24"
        d="M625,966.28a23.37,23.37,0,0,1-2.57-.13.53.53,0,1,1,.14-1.06c.12,0,12.57,1.63,17.5-7.06a.52.52,0,0,1,.72-.2.53.53,0,0,1,.2.73C637.16,965.35,629.14,966.28,625,966.28Z" />
      <path class="cls-15"
        d="M569,1030.5l-18.79,3.64s-3.33,9.7,5.87,12.77,11.05,3.08,14,10.15,14.41,7.38,18.44,4.92,11.09,6.76,17.63,6.76,10.39-11.49,7.84-19.12C614,1049.62,589.42,1045.45,569,1030.5Z" />
      <path class="cls-1" d="M638,1090.11a4.15,4.15,0,1,1,4.15,4.12A4.14,4.14,0,0,1,638,1090.11Z" />
      <path class="cls-1" d="M655.45,1222.38a4.15,4.15,0,1,1,4.15,4.12A4.13,4.13,0,0,1,655.45,1222.38Z" />
      <path class="cls-1" d="M655.45,1162.45a4.15,4.15,0,1,1,4.15,4.12A4.13,4.13,0,0,1,655.45,1162.45Z" />
      <path class="cls-23"
        d="M638,1021.8S752.54,999.7,801.72,964c51.17-37.18,75-64.68,75-64.68s18-3.17,30.4,8.84c17.56,17,17.56,33.5,17.56,33.5s-38.78,52.22-86.85,90.25c-50,39.59-132.09,70.23-132.09,70.23Z" />
      <path class="cls-15"
        d="M628.81,1021.21S640.36,1049,614,1049.62c0,0,13.87,13.79,23.58,8.26s.41-10.45,4.54-14.14,8.67-6.36,4.54-10.66-1.53-12.84-1.53-12.84S638.52,1014,628.81,1021.21Z" />
      <path class="cls-19"
        d="M531.25,1318.59c-14.3-9.63-21.91-18.25-21.91-18.25s11.28-34.74,14.88-35.45c8.28-1.64,25.35-1.18,33.67-2.67,3.61-.64,15.88-2,17,1.54,1,3-8.31,8.74-13,10.92,21.9,10.14,49.31,34.79,1.86,16.89l0,.08c4.63,2.25,30.39,14.8,24.94,19.82-4.81,4.44-23.62-3.78-31.28-7.41l-.12.21c7.46,4.36,25.19,15.37,19.27,18.1-7.43,3.43-28.28-5.07-28.28-5.07s26.39,11.46,18.3,16.47c-5.52,3.42-25.48-9.22-32.63-13.28A13.75,13.75,0,0,1,531.25,1318.59Z" />
      <path class="cls-11"
        d="M713.32,1099.75a.61.61,0,0,1-.58-.43c-4.09-12.45-12.16-23.53-12.24-23.65a.62.62,0,1,1,1-.72c.08.11,8.26,11.34,12.41,24a.61.61,0,0,1-.39.77A.48.48,0,0,1,713.32,1099.75Z" />
      <path class="cls-23"
        d="M546.63,1041.11s-125.79,30.68-162.55,149.56c-25.28,81.77,95.71,116.85,123.83,111.93,0,0,24.12-27.35,32.23-48.39l-39.41-49.36c12.26-31.21,6.61-34.06,6.61-34.06Z" />
      <path class="cls-11"
        d="M479.7,1197.16a.59.59,0,0,1-.44-.19.61.61,0,0,1,0-.87c8.58-8.49,34.8-26,35.07-26.21a.59.59,0,0,1,.85.16.6.6,0,0,1-.17.85c-.26.18-26.38,17.67-34.88,26.08A.58.58,0,0,1,479.7,1197.16Z" />
      <path class="cls-11"
        d="M540.14,1254.82a.61.61,0,0,1-.51-.27c-20.33-29.83-70.37-65.09-70.87-65.44a.61.61,0,0,1-.15-.86.6.6,0,0,1,.86-.15c.5.35,50.72,35.75,71.17,65.76a.59.59,0,0,1-.16.85A.53.53,0,0,1,540.14,1254.82Z" />
      <ellipse class="cls-11" cx="1376.36" cy="515.27" rx="22.67" ry="64.52"
        transform="translate(430.89 1640.42) rotate(-70.48)" />
      <path class="cls-25"
        d="M1022.17,889.91,887.31,752.22a5.7,5.7,0,0,1,.29-8.24l81.56-72.48a5.69,5.69,0,0,1,8,.4l129.1,140.52a5.69,5.69,0,0,1-.34,8.05l-75.81,69.65A5.69,5.69,0,0,1,1022.17,889.91Z" />
      <polygon class="cls-11"
        points="1096.88 829.31 977.81 802.72 977.74 802.24 959.38 679.67 960.81 679.45 979.1 801.53 1097.2 827.9 1096.88 829.31" />
      <polygon class="cls-11" points="1032.14 887.81 1016.97 810.99 1018.15 810.75 1033.33 887.57 1032.14 887.81" />
      <polygon class="cls-11" points="972.98 766.99 885.64 747.9 885.9 746.73 973.23 765.82 972.98 766.99" />
      <path class="cls-13"
        d="M1062.39,705s-33-21-55-14.72-45.42,30.92-31,29.93,32.63-7.35,32.63-7.35-38.14,15.43-30.67,22.79,40.52-6.38,40.52-6.38-43.93,22-34.62,26.64,42.56-12.27,42.56-12.27-40,22.08-29.11,27.25,33-18.46,40.45-11.11,39.63,34.06,62.61,15.79Z" />
      <path class="cls-26"
        d="M1009,714.24a1.35,1.35,0,0,1-1.18-.68,1.38,1.38,0,0,1,.48-1.89c.44-.26,10.9-6.36,18-3a1.38,1.38,0,1,1-1.18,2.5c-5.72-2.71-15.28,2.84-15.37,2.89A1.54,1.54,0,0,1,1009,714.24Z" />
      <path class="cls-26"
        d="M1018.88,730.65a1.38,1.38,0,0,1-.73-2.55c.43-.27,10.46-6.27,21-3.69a1.38,1.38,0,1,1-.66,2.67c-9.48-2.34-18.76,3.3-18.85,3.36A1.34,1.34,0,0,1,1018.88,730.65Z" />
      <path class="cls-26"
        d="M1026.82,745a1.4,1.4,0,0,1-1.19-.68,1.38,1.38,0,0,1,.49-1.89c.52-.3,12.87-7.49,20.08-3.32a1.38,1.38,0,0,1,.5,1.89,1.39,1.39,0,0,1-1.88.5c-4.86-2.8-14.14,1.43-17.3,3.3A1.38,1.38,0,0,1,1026.82,745Z" />
      <path class="cls-13"
        d="M1426.78,529.59h0c-1.24,4.28-2.65,8.74-4.26,13.37A285.58,285.58,0,0,1,1406,581.24c-24.15,46.26-67.78,99.43-146.63,140.59a488,488,0,0,1-60.6,26.4l-4.59,1.64c-32.21,11.27-62.25,23.61-103.46,31l0-.06-24.82-66.58-3.43-9.2c51.75-9.23,93.54-23,127.26-39.24,57.23-27.56,91.28-62.26,111.56-94.16A197.09,197.09,0,0,0,1328,507.11q.57-2.72,1-5.2a8.13,8.13,0,0,1,8-6.68C1355.66,495.35,1406.42,498.61,1426.78,529.59Z" />
      <path class="cls-26"
        d="M1301.85,662.93h-.3a11.47,11.47,0,0,1-8.33-3.41c-5.55-5.91-3.1-17.58,5.47-26,5.2-5.12,11.68-8.15,17.35-8a11.42,11.42,0,0,1,8.33,3.42c5.55,5.9,3.1,17.56-5.46,26h0C1313.8,660,1307.44,662.93,1301.85,662.93Zm13.89-34.69c-4.88,0-10.51,2.69-15.12,7.23-7.5,7.39-9.92,17.33-5.39,22.15a8.75,8.75,0,0,0,6.37,2.55c5-.07,10.69-2.61,15.37-7.22,7.51-7.4,9.93-17.34,5.39-22.16a8.73,8.73,0,0,0-6.37-2.55Zm2.2,25.69h0Z" />
      <path class="cls-6"
        d="M1677.94,283.32l23.93-.64a16.57,16.57,0,0,0,16.11-17l-.77-29.09a16.58,16.58,0,0,0-17-16.13l-16.93.46a16.55,16.55,0,0,1-16.16-11.34c-.44-1.33-.9-2.64-1.39-3.95a16.47,16.47,0,0,1,4.69-18.07L1682,177.43a16.56,16.56,0,0,0,1.55-23.39l-19.17-21.89a16.58,16.58,0,0,0-23.38-1.56l-11.58,10.12a16.44,16.44,0,0,1-18.5,2.25c-1.23-.65-2.47-1.28-3.71-1.88a16.57,16.57,0,0,1-9.12-17.54l2.69-16.7a16.57,16.57,0,0,0-13.73-19l-28.74-4.63a16.58,16.58,0,0,0-19,13.72l-3.81,23.64a16.61,16.61,0,0,1-11.88,13.31,117.62,117.62,0,0,0-15.37,5.63,16.63,16.63,0,0,1-19.39-4.14l-12.41-14.18a16.57,16.57,0,0,0-23.39-1.55l-21.89,19.17a16.56,16.56,0,0,0-1.55,23.38l16.69,19.07a16.57,16.57,0,0,1,2.77,17.6q-.94,2.13-1.8,4.29a16.5,16.5,0,0,1-14.92,10.35l-27,.71a16.57,16.57,0,0,0-16.13,17l.77,29.11a16.58,16.58,0,0,0,17,16.13l23.2-.62a16.59,16.59,0,0,1,16,10.88l.08.22a16.55,16.55,0,0,1-4.65,18.16l-16.4,14.34a16.59,16.59,0,0,0-1.56,23.4l19.19,21.9a16.57,16.57,0,0,0,23.39,1.55l16.38-14.35a16.54,16.54,0,0,1,18.61-2.21l.23.12a16.59,16.59,0,0,1,8.67,17.31l-3.69,22.9a16.57,16.57,0,0,0,13.73,19l28.76,4.62a16.58,16.58,0,0,0,19-13.74l4.28-26.68a16.51,16.51,0,0,1,12.24-13.42c1.5-.37,3-.78,4.48-1.21A16.55,16.55,0,0,1,1606,363.7l16.69,19.08a16.57,16.57,0,0,0,23.39,1.56L1668,365.17a16.58,16.58,0,0,0,1.55-23.39l-12.41-14.18a16.68,16.68,0,0,1-1.55-19.77,116.2,116.2,0,0,0,7.6-14.48A16.65,16.65,0,0,1,1677.94,283.32Zm-79,13.59c-25.44,22.26-77.43,15.94-99.69-9.5s-13.36-68.4,12.08-90.63,68.8-10.33,91.06,15.11S1624.39,274.64,1599,296.91Z" />
      <path class="cls-10"
        d="M1554.18,432.15a17.77,17.77,0,0,1-2.71-.21l-28.76-4.62a17.07,17.07,0,0,1-14.15-19.57l3.69-22.9a16.06,16.06,0,0,0-8.41-16.78l-.22-.12a16.09,16.09,0,0,0-18.06,2.14l-16.38,14.35a17.07,17.07,0,0,1-24.09-1.6l-19.19-21.91a17.07,17.07,0,0,1,1.6-24.09l16.4-14.35a16.09,16.09,0,0,0,4.51-17.61l-.08-.22a16,16,0,0,0-15.52-10.55l-23.2.62a17.08,17.08,0,0,1-17.52-16.61l-.77-29.11a17,17,0,0,1,16.61-17.52l27-.72a16,16,0,0,0,14.47-10c.58-1.45,1.18-2.9,1.81-4.31a16.11,16.11,0,0,0-2.69-17.07l-16.69-19.07a17.09,17.09,0,0,1,1.6-24.09L1455.31,137a17.08,17.08,0,0,1,24.1,1.6l12.41,14.17a16.1,16.1,0,0,0,18.81,4,116.43,116.43,0,0,1,15.44-5.65,16.24,16.24,0,0,0,11.52-12.91l3.82-23.65A17.09,17.09,0,0,1,1561,100.49l28.75,4.63a17.07,17.07,0,0,1,14.14,19.56l-2.69,16.71a16,16,0,0,0,8.84,17c1.25.6,2.5,1.24,3.73,1.89a16,16,0,0,0,17.94-2.18L1643.26,148a17.09,17.09,0,0,1,24.08,1.61l19.17,21.9a17.07,17.07,0,0,1-1.6,24.09l-11.56,10.12a16,16,0,0,0-4.55,17.51c.49,1.32,1,2.66,1.39,4a16,16,0,0,0,15.68,11l16.93-.46a17.08,17.08,0,0,1,17.52,16.61l.78,29.09a17.09,17.09,0,0,1-16.6,17.52l-23.93.65a16.23,16.23,0,0,0-14.33,9.73,116.38,116.38,0,0,1-7.63,14.55,16.1,16.1,0,0,0,1.5,19.17l12.41,14.18a17.07,17.07,0,0,1-1.6,24.09L1649,402.49a17.08,17.08,0,0,1-24.09-1.61l-16.69-19.08a16.09,16.09,0,0,0-16.55-4.93c-1.48.44-3,.85-4.5,1.23a16,16,0,0,0-11.87,13L1571,417.79A17.1,17.1,0,0,1,1554.18,432.15Zm-58-67a16.85,16.85,0,0,1,7.9,1.95l.23.12a17.11,17.11,0,0,1,8.93,17.83l-3.69,22.9a16.06,16.06,0,0,0,13.32,18.43l28.75,4.61A16.08,16.08,0,0,0,1570,417.63l4.29-26.68a17,17,0,0,1,12.6-13.82c1.5-.37,3-.78,4.47-1.21a17.09,17.09,0,0,1,17.58,5.23l16.69,19.07a16.08,16.08,0,0,0,22.69,1.52l21.9-19.18a16.05,16.05,0,0,0,1.51-22.68l-12.41-14.19a17.08,17.08,0,0,1-1.59-20.35,117,117,0,0,0,7.56-14.42,17.22,17.22,0,0,1,15.21-10.32l23.93-.65a16.09,16.09,0,0,0,15.63-16.5l-.77-29.09a16.07,16.07,0,0,0-16.51-15.64l-16.92.46a17,17,0,0,1-16.65-11.68c-.43-1.31-.9-2.63-1.38-3.94a17,17,0,0,1,4.82-18.61l11.57-10.12a16.08,16.08,0,0,0,1.5-22.69l-19.17-21.89a16.08,16.08,0,0,0-22.67-1.52l-11.58,10.13a17,17,0,0,1-19.07,2.31c-1.22-.64-2.46-1.28-3.69-1.88a17,17,0,0,1-9.4-18.06l2.69-16.7a16.09,16.09,0,0,0-13.31-18.43l-28.75-4.63a16.09,16.09,0,0,0-18.42,13.31l-3.81,23.64a17.23,17.23,0,0,1-12.23,13.71,115.91,115.91,0,0,0-15.31,5.61,17.09,17.09,0,0,1-20-4.27l-12.41-14.18a16.08,16.08,0,0,0-22.69-1.5L1434.08,157a16.1,16.1,0,0,0-1.5,22.68l16.69,19.07a17.11,17.11,0,0,1,2.85,18.13c-.62,1.4-1.22,2.84-1.79,4.27A17,17,0,0,1,1435,231.77l-27,.71a16.09,16.09,0,0,0-15.65,16.5l.78,29.11a16.07,16.07,0,0,0,16.5,15.64l23.19-.62a17.12,17.12,0,0,1,16.49,11.21l.08.21a17.13,17.13,0,0,1-4.79,18.71l-16.4,14.35a16.09,16.09,0,0,0-1.51,22.69l19.19,21.91a16.08,16.08,0,0,0,22.69,1.5l16.37-14.35A17.16,17.16,0,0,1,1496.18,365.11Z" />
      <path class="cls-3"
        d="M271.35,452.77c-6.13,8.67-10.71,9.3-14.11,6.9s-4.33-6.93,1.8-15.6c11.17-15.8,22.71-19.08,22.71-19.08S282.67,436.74,271.35,452.77Z" />
      <path class="cls-3"
        d="M369.2,680.55l-1.9.67c-.1-.3-10.6-29.66-38.88-66.85-26.1-34.3-73.09-82.48-148.8-117.15l.83-1.83c76.13,34.86,123.39,83.32,149.62,117.84C358.52,650.65,369.1,680.25,369.2,680.55Z" />
      <path class="cls-3"
        d="M262.19,545.43l-2-.29c10.54-72.22-41.81-130.44-42.34-131l1.48-1.35C219.88,413.35,272.87,472.25,262.19,545.43Z" />
      <path class="cls-3"
        d="M221.18,528.19a71.23,71.23,0,0,1-37.07,5.42l.33-2c.24,0,23.63,3.79,44-9.74l1.11,1.67A60,60,0,0,1,221.18,528.19Z" />
      <path class="cls-3"
        d="M173.78,487.56c13.64,4.36,16.67,8.87,15.4,12.84s-6.35,5.88-20,1.52C144.34,494,134.63,483,134.63,483S148.57,479.51,173.78,487.56Z" />
      <path class="cls-3"
        d="M186.34,525.47c14.32,0,18.57,3.42,18.56,7.59s-4.29,7.52-18.6,7.48c-26.09-.08-38.67-7.65-38.67-7.65S159.88,525.39,186.34,525.47Z" />
      <path class="cls-3"
        d="M226.72,490.55c6.47,8.42,5.71,13,2.41,15.52s-7.9,2.08-14.36-6.34c-11.78-15.34-11.5-27.35-11.5-27.35S214.77,475,226.72,490.55Z" />
      <path class="cls-3"
        d="M219.85,403.6c8.77,11.31,8.72,16.75,5.43,19.3s-8.56,1.25-17.34-10.06c-16-20.61-17.77-35.19-17.77-35.19S203.62,382.69,219.85,403.6Z" />
      <path class="cls-12"
        d="M1102.93,268.5l2.72,11.63a8.26,8.26,0,0,0,9.93,6.16l14.13-3.3a8.27,8.27,0,0,0,6.17-9.93l-1.92-8.22a8.26,8.26,0,0,1,3.91-9c.61-.35,1.2-.71,1.8-1.08a8.19,8.19,0,0,1,9.29.48l6.11,4.63a8.26,8.26,0,0,0,11.58-1.59l8.77-11.57a8.26,8.26,0,0,0-1.58-11.57l-6.11-4.64a8.21,8.21,0,0,1-3-8.82c.19-.66.38-1.33.55-2a8.24,8.24,0,0,1,7.65-6.22l8.43-.36a8.27,8.27,0,0,0,7.9-8.62l-.63-14.51a8.26,8.26,0,0,0-8.61-7.9l-11.93.51a8.3,8.3,0,0,1-7.7-4.46,58.8,58.8,0,0,0-4.29-7,8.31,8.31,0,0,1,.07-9.89l5.68-7.48a8.27,8.27,0,0,0-1.59-11.59l-11.56-8.77a8.27,8.27,0,0,0-11.58,1.6l-7.64,10.07a8.29,8.29,0,0,1-8.32,3.12q-1.14-.25-2.28-.45a8.21,8.21,0,0,1-6.55-6.25l-3.07-13.12a8.26,8.26,0,0,0-9.93-6.17l-14.14,3.3a8.27,8.27,0,0,0-6.17,9.93l2.63,11.27a8.29,8.29,0,0,1-3.7,8.92l-.1.06a8.25,8.25,0,0,1-9.34-.45l-8.66-6.57a8.26,8.26,0,0,0-11.58,1.59l-8.78,11.57a8.27,8.27,0,0,0,1.59,11.59l8.66,6.56a8.24,8.24,0,0,1,3,8.87l0,.13a8.26,8.26,0,0,1-7.58,6l-11.56.5a8.26,8.26,0,0,0-7.9,8.62l.63,14.51a8.28,8.28,0,0,0,8.62,7.9l13.46-.59a8.22,8.22,0,0,1,7.79,4.63c.33.69.68,1.38,1,2.07a8.25,8.25,0,0,1-.76,8.85l-7.65,10.07a8.26,8.26,0,0,0,1.59,11.58l11.57,8.78a8.27,8.27,0,0,0,11.58-1.59l5.69-7.49a8.3,8.3,0,0,1,9.5-2.74,57.6,57.6,0,0,0,7.83,2.25A8.3,8.3,0,0,1,1102.93,268.5Zm-14.57-37.22c-13.43-10.19-15.57-36.23-5.38-49.66s32.07-13.4,45.49-3.2,12,32.57,1.77,46S1101.79,241.47,1088.36,231.28Z" />
    </g>
  </g>
</svg>